<svg xmlns="http://www.w3.org/2000/svg" width="46" height="46" viewBox="0 0 46 46">
    <defs>
        <style>
            .cls-2{fill:#012871}
        </style>
    </defs>
    <g id="Group_21806" data-name="Group 21806" transform="translate(-350 -200)">
        <g id="Group_15983" data-name="Group 15983" transform="translate(317 -1024)">
            <g id="Group_15890" data-name="Group 15890" transform="translate(33 1224)">
                <g id="Group_11441" data-name="Group 11441">
                    <circle id="Ellipse_462" data-name="Ellipse 462" cx="23" cy="23" r="23" style="fill:#ede8e8"/>
                </g>
                <g id="wxUebE.tif" transform="translate(9.267 12.346)">
                    <g id="Group_8940" data-name="Group 8940">
                        <path id="Path_17885" data-name="Path 17885" class="cls-2" d="M975.868 410.3c.073.018.153.025.18.115a.141.141 0 0 1-.18-.115z" transform="translate(-975.76 -386.942)"/>
                        <path id="Path_17886" data-name="Path 17886" class="cls-2" d="m1285.887 146.506-.086-.116z" transform="translate(-1257.753 -146.39)"/>
                        <path id="Path_17887" data-name="Path 17887" class="cls-2" d="m974.668 409.567.124.083z" transform="translate(-974.668 -386.276)"/>
                    </g>
                </g>
            </g>
        </g>
        <g id="Group_21730" data-name="Group 21730" transform="translate(203.659 32.659)">
            <path id="Rectangle_8126" data-name="Rectangle 8126" transform="translate(157.001 180)" style="fill:#03846f" d="M0 0h12.253v22.342H0z"/>
            <path id="Rectangle_8127" data-name="Rectangle 8127" transform="translate(162.253 183.623)" style="fill:#fff" d="M0 0h18.088v7.85H0z"/>
            <g id="OTP" transform="translate(156.341 177.341)">
                <path id="Path_23761" data-name="Path 23761" d="M55.7 35.68H44.52v-2.865A1.813 1.813 0 0 0 42.705 31h-9.89A1.813 1.813 0 0 0 31 32.815v22.37A1.816 1.816 0 0 0 32.815 57h9.89a1.816 1.816 0 0 0 1.815-1.815V46.08H55.7a1.3 1.3 0 0 0 1.3-1.3v-7.8a1.3 1.3 0 0 0-1.3-1.3zM36.46 32.1h2.6a.65.65 0 1 1 0 1.3h-2.6a.65.65 0 1 1 0-1.3zm2.6 23.791h-2.6a.65.65 0 0 1 0-1.3h2.6a.65.65 0 1 1 0 1.3zm4.316-2.4H32.144V34.51h11.232v1.17h-6.927a1.289 1.289 0 0 0-1.289 1.289v7.82a1.291 1.291 0 0 0 1.291 1.291H38.8v2.089a.643.643 0 0 0 1.1.454l2.54-2.543h.936zm-1.409-12.138a.651.651 0 1 1-.65 1.128L40.49 42v.957a.65.65 0 1 1-1.3 0V42l-.827.478a.647.647 0 0 1-.889-.239.654.654 0 0 1 .239-.889l.827-.473-.827-.478a.651.651 0 1 1 .65-1.128l.827.478V38.8a.65.65 0 1 1 1.3 0v.952l.827-.478a.651.651 0 1 1 .65 1.128l-.827.478zm6.24 0a.651.651 0 1 1-.65 1.128L46.73 42v.957a.65.65 0 1 1-1.3 0V42l-.827.478a.647.647 0 0 1-.889-.239.654.654 0 0 1 .239-.889l.827-.473-.827-.478a.651.651 0 1 1 .65-1.128l.827.478V38.8a.65.65 0 1 1 1.3 0v.952l.827-.478a.651.651 0 1 1 .65 1.128l-.827.478zm6.24 0a.651.651 0 1 1-.65 1.128L52.97 42v.957a.65.65 0 1 1-1.3 0V42l-.827.478a.647.647 0 0 1-.889-.239.654.654 0 0 1 .239-.889l.827-.473-.827-.478a.651.651 0 0 1 .65-1.128l.827.478V38.8a.65.65 0 1 1 1.3 0v.952l.827-.478a.651.651 0 1 1 .65 1.128l-.827.478z" transform="translate(-31 -31)" style="fill:#0ec6a8"/>
            </g>
        </g>
    </g>
</svg>
