<svg xmlns="http://www.w3.org/2000/svg" xmlns:xlink="http://www.w3.org/1999/xlink" width="43.25" height="76.162" viewBox="0 0 43.25 76.162">
  <defs>
    <clipPath id="clip-path">
      <path id="Path_16690" data-name="Path 16690" d="M169.284,215.217l.7,1.524s4.295-2.011,5.225-3.182c.238-.3.567-.784.922-1.333.584-.907,1.245-2,1.7-2.765.341-.572.569-.963.569-.963l-2.431-3.834c-.531.408-2.158,6.96-2.448,7.312S169.284,215.217,169.284,215.217Z" transform="translate(-169.284 -204.664)" fill="#407bff"/>
    </clipPath>
    <clipPath id="clip-path-2">
      <path id="Path_16715" data-name="Path 16715" d="M203.279,212.82s1.708-10.406-1.227-15.072c0,0-5.863-.364-9.987,2.016,0,0,1.7,4.633,1.958,13.055Z" transform="translate(-192.065 -197.729)" fill="#407bff"/>
    </clipPath>
  </defs>
  <g id="Group_8375" data-name="Group 8375" transform="translate(-4676.35 -6463.158)">
    <g id="Group_8374" data-name="Group 8374" transform="translate(4705.389 6462.768)">
      <path id="Path_16720" data-name="Path 16720" d="M7.3,0A7.3,7.3,0,1,1,0,7.3,7.3,7.3,0,0,1,7.3,0Z" transform="translate(-0.389 0.391)" fill="#bfd0f5"/>
      <path id="Path_16719" data-name="Path 16719" d="M7.3,0A7.3,7.3,0,1,1,0,7.3,7.3,7.3,0,0,1,7.3,0Z" transform="translate(-0.389 17.296)" fill="#e6e6e6"/>
      <path id="Path_16721" data-name="Path 16721" d="M7.3,0a7.5,7.5,0,0,1,7.3,7.684,7.5,7.5,0,0,1-7.3,7.684A7.5,7.5,0,0,1,0,7.684,7.5,7.5,0,0,1,7.3,0Z" transform="translate(-0.389 34.201)" fill="#e6e6e6"/>
    </g>
    <g id="Character" transform="translate(4676.35 6461.159)">
      <g id="Group_8373" data-name="Group 8373" transform="translate(0 2)">
        <path id="Path_16687" data-name="Path 16687" d="M162.545,236.62l-3.123,2.537s-.764.016-1,.268a6.618,6.618,0,0,0-1.031,2.382c.131.256,1.672.761,2,.459a7.073,7.073,0,0,0,.878-2.222l3.991-2.677Z" transform="translate(-157.375 -213.815)" fill="#ebb376"/>
        <g id="Group_8364" data-name="Group 8364" transform="translate(3.496 13.424)">
          <path id="Path_16688" data-name="Path 16688" d="M169.284,215.217l.7,1.524s4.295-2.011,5.225-3.182c.238-.3.567-.784.922-1.333.584-.907,1.245-2,1.7-2.765.341-.572.569-.963.569-.963l-2.431-3.834c-.531.408-2.158,6.96-2.448,7.312S169.284,215.217,169.284,215.217Z" transform="translate(-169.284 -204.664)" fill="#407bff"/>
          <g id="Group_8363" data-name="Group 8363" clip-path="url(#clip-path)">
            <path id="Path_16689" data-name="Path 16689" d="M192.6,217.058c.584-.907,1.245-2,1.7-2.765l-1.13-2.789A33.25,33.25,0,0,0,192.6,217.058Z" transform="translate(-185.754 -209.496)" opacity="0.1" style="mix-blend-mode: normal;isolation: isolate"/>
          </g>
        </g>
        <path id="Path_16691" data-name="Path 16691" d="M260.048,178.633l3.078-2.389s.249-.722.562-.873a6.616,6.616,0,0,1,2.584-.252c.2.2.212,1.825-.175,2.041a7.071,7.071,0,0,1-2.384.156l-3.362,2.456Z" transform="translate(-229.908 -170.319)" fill="#ebb376"/>
        <path id="Path_16692" data-name="Path 16692" d="M171.525,398.4l1.843.325.756-2.513.69-2.306-2.125-.742-.617,2.772Z" transform="translate(-167.371 -324.404)" fill="#ebb376"/>
        <path id="Path_16693" data-name="Path 16693" d="M173.351,396.021l2.053.27.694-2.331-2.122-.755Z" transform="translate(-168.661 -324.434)" opacity="0.2" style="mix-blend-mode: normal;isolation: isolate"/>
        <path id="Path_16694" data-name="Path 16694" d="M213.433,398.661H215.3l.307-2.511.278-2.343-2.221-.338-.126,2.754Z" transform="translate(-196.977 -324.621)" fill="#ebb376"/>
        <path id="Path_16695" data-name="Path 16695" d="M213.806,396.475l2.069-.091.278-2.416-2.221-.374Z" transform="translate(-197.241 -324.709)" opacity="0.2" style="mix-blend-mode: normal;isolation: isolate"/>
        <g id="Group_8366" data-name="Group 8366" transform="translate(4.517 24.95)">
          <g id="Group_8365" data-name="Group 8365">
            <path id="Path_16696" data-name="Path 16696" d="M172.761,288.549l3.029.534c3.057-7.616,5.231-13.974,6.767-19.249.827-2.847,1.482-5.378,1.978-7.625l-.127,8.291v18.7h3.055c7.484-35.52,2.18-43.777,2.18-43.777l-8.952-1.5a40.739,40.739,0,0,0-.75,5.027l-.4,2.968L176.036,270Z" transform="translate(-172.761 -243.928)" fill="#263238"/>
          </g>
        </g>
        <g id="Group_8367" data-name="Group 8367" transform="translate(4.263 68.485)">
          <path id="Path_16697" data-name="Path 16697" d="M175.655,393.478l-3.758-1.246.051,1.6,3.108.991Z" transform="translate(-171.897 -392.232)" fill="#407bff"/>
          <path id="Path_16698" data-name="Path 16698" d="M175.655,393.478l-3.758-1.246.051,1.6,3.108.991Z" transform="translate(-171.897 -392.232)" fill="#fff" opacity="0.6" style="mix-blend-mode: normal;isolation: isolate"/>
        </g>
        <g id="Group_8368" data-name="Group 8368" transform="translate(15.702 69.332)">
          <path id="Path_16699" data-name="Path 16699" d="M214.782,395.688l-3.917-.573.328,1.565,3.233.436Z" transform="translate(-210.865 -395.115)" fill="#407bff"/>
          <path id="Path_16700" data-name="Path 16700" d="M214.782,395.688l-3.917-.573.328,1.565,3.233.436Z" transform="translate(-210.865 -395.115)" fill="#fff" opacity="0.6" style="mix-blend-mode: normal;isolation: isolate"/>
        </g>
        <path id="Path_16701" data-name="Path 16701" d="M204.727,290.189c.141-.473.292-.938.424-1.394.75-2.584,1.251-4.908,1.838-6.994V281.8l.306-3.84s-1.915-4.219-1.2-7.187a14.274,14.274,0,0,0-.836,6.634A94.106,94.106,0,0,1,204.727,290.189Z" transform="translate(-190.827 -237.939)" opacity="0.2" style="mix-blend-mode: normal;isolation: isolate"/>
        <g id="Group_8369" data-name="Group 8369" transform="translate(9.624 0.953)">
          <path id="Path_16702" data-name="Path 16702" d="M198.662,172.7a.434.434,0,0,0,.078.043,3.294,3.294,0,0,0,1.219.412,2.608,2.608,0,0,0,2.525-.771h0c.65-.921.65-2.4.314-4.149a6.66,6.66,0,0,0-.651-2c0-.005-.006-.026-.01-.031-.014-.021-.026-.05-.04-.071a2.421,2.421,0,0,0-1.954-1.236,4.892,4.892,0,0,0-1.055.019C195.657,165.322,195.779,171.083,198.662,172.7Z" transform="translate(-194.643 -164.083)" fill="#ebb376"/>
          <path id="Path_16703" data-name="Path 16703" d="M204.117,190.586a3.214,3.214,0,0,0,1.213.364,2.586,2.586,0,0,0,2.519-.819,3.449,3.449,0,0,1-2.2.1A1.8,1.8,0,0,0,204.117,190.586Z" transform="translate(-200.02 -181.926)" opacity="0.2" style="mix-blend-mode: normal;isolation: isolate"/>
          <path id="Path_16704" data-name="Path 16704" d="M202.753,191.993c-.308.959.922,1.483.922,1.483,2.163-.683,2.657-1.749,2.657-1.749-1.643-1.073-.891-3.579-.891-3.579l-.37.139-2.521.241s.557,1.384.618,1.693c0,0,0,.006,0,.009C203.482,191.845,202.753,191.993,202.753,191.993Z" transform="translate(-198.913 -180.525)" fill="#ebb376"/>
          <path id="Path_16705" data-name="Path 16705" d="M197.665,164.305a3.636,3.636,0,0,1-1.642,3.71s-.653,2.626-2.089,2.848c-1.958.3-4.052-2.266-3.743-5.2C190.592,161.857,196.145,160.829,197.665,164.305Z" transform="translate(-190.16 -162.181)" fill="#263238"/>
          <path id="Path_16706" data-name="Path 16706" d="M210.334,177.19c-.05-.375-.433-.966-1.005-.8-.592.167-.733,1.7.794,1.838C210.341,178.243,210.437,177.972,210.334,177.19Z" transform="translate(-203.407 -172.196)" fill="#ebb376"/>
        </g>
        <path id="Path_16707" data-name="Path 16707" d="M213.961,409.948h-2.088a.191.191,0,0,0-.185.149l-.429,1.937a.321.321,0,0,0,.248.38.315.315,0,0,0,.07.007c.855-.014.924-.066,2-.066.661,0,2.656.069,3.569.069s1.032-.9.658-.985a8.617,8.617,0,0,1-3.474-1.353A.526.526,0,0,0,213.961,409.948Z" transform="translate(-195.436 -336.262)" fill="#263238"/>
        <path id="Path_16708" data-name="Path 16708" d="M220.9,409.836a.053.053,0,0,1-.038-.044.047.047,0,0,1,.025-.05c.077-.05.78-.481,1.021-.357a.154.154,0,0,1,.088.144.3.3,0,0,1-.108.277.652.652,0,0,1-.418.111A2.616,2.616,0,0,1,220.9,409.836Zm.149-.072a1.057,1.057,0,0,0,.775-.039.213.213,0,0,0,.069-.186c0-.041-.019-.061-.033-.061a.119.119,0,0,0-.067-.014A2.107,2.107,0,0,0,221.045,409.764Z" transform="translate(-202.221 -335.848)" fill="#407bff"/>
        <path id="Path_16709" data-name="Path 16709" d="M220.884,408.663a.055.055,0,0,1-.025-.047c0-.03.055-.656.307-.86a.277.277,0,0,1,.218-.066.169.169,0,0,1,.166.136c.044.23-.39.708-.614.83h-.025A.048.048,0,0,1,220.884,408.663Zm.349-.846a1.22,1.22,0,0,0-.257.68c.224-.169.5-.531.473-.672,0-.014-.009-.053-.075-.053h-.025A.175.175,0,0,0,221.232,407.817Z" transform="translate(-202.223 -334.665)" fill="#407bff"/>
        <path id="Path_16710" data-name="Path 16710" d="M171.525,409.948h-2.088a.191.191,0,0,0-.186.149l-.429,1.937a.321.321,0,0,0,.248.38.316.316,0,0,0,.07.007c.855-.014.924-.066,2-.066.661,0,2.656.069,3.569.069s1.032-.9.659-.985a8.617,8.617,0,0,1-3.475-1.353A.526.526,0,0,0,171.525,409.948Z" transform="translate(-165.457 -336.262)" fill="#263238"/>
        <path id="Path_16711" data-name="Path 16711" d="M178.46,409.836a.053.053,0,0,1-.039-.044.047.047,0,0,1,.025-.05c.077-.05.78-.481,1.021-.357a.155.155,0,0,1,.089.144.3.3,0,0,1-.108.277.651.651,0,0,1-.418.111A2.611,2.611,0,0,1,178.46,409.836Zm.149-.072a1.057,1.057,0,0,0,.775-.039.213.213,0,0,0,.069-.186c0-.041-.019-.061-.033-.061a.118.118,0,0,0-.066-.014A2.106,2.106,0,0,0,178.609,409.764Z" transform="translate(-172.243 -335.848)" fill="#407bff"/>
        <path id="Path_16712" data-name="Path 16712" d="M178.448,408.663a.055.055,0,0,1-.025-.047c0-.03.055-.656.307-.86a.277.277,0,0,1,.218-.066.169.169,0,0,1,.166.136c.044.23-.39.708-.614.83h-.025A.048.048,0,0,1,178.448,408.663Zm.349-.846a1.22,1.22,0,0,0-.257.68c.224-.169.5-.531.473-.672,0-.014-.008-.053-.075-.053h-.025A.175.175,0,0,0,178.8,407.817Z" transform="translate(-172.244 -334.665)" fill="#407bff"/>
        <g id="Group_8371" data-name="Group 8371" transform="translate(10.183 11.389)">
          <path id="Path_16713" data-name="Path 16713" d="M203.279,212.82s1.708-10.406-1.227-15.072c0,0-5.863-.364-9.987,2.016,0,0,1.7,4.633,1.958,13.055Z" transform="translate(-192.065 -197.729)" fill="#407bff"/>
          <g id="Group_8370" data-name="Group 8370" clip-path="url(#clip-path-2)">
            <path id="Path_16714" data-name="Path 16714" d="M226.5,207.165a24.638,24.638,0,0,0-.353-3.969,11.518,11.518,0,0,1-1.93-2.2S223.683,205.211,226.5,207.165Z" transform="translate(-214.75 -200.037)" opacity="0.1" style="mix-blend-mode: normal;isolation: isolate"/>
          </g>
        </g>
        <path id="Path_16716" data-name="Path 16716" d="M223.389,187.94a66.654,66.654,0,0,0,6.684-1.047c.547-.23,4.817-3.02,4.817-3.02l1,1.491s-4.37,3.528-5.108,3.934a51.058,51.058,0,0,1-5.626,2.293S222.806,189.956,223.389,187.94Z" transform="translate(-203.945 -176.552)" fill="#407bff"/>
        <path id="Path_16717" data-name="Path 16717" d="M189,163.587s2.415-2.415.137-4.04-4.566.5-4.566.5-5.451,1.317-4.29,4.94,1.918,3.932.193,5.791-3.49,4.612-1.726,6.371,7.931-.05,9.8-2.707S187.111,166.079,189,163.587Z" transform="translate(-171.955 -158.933)" fill="#263238"/>
        <g id="Group_8372" data-name="Group 8372" transform="translate(12.104 25.493)">
          <path id="Path_16718" data-name="Path 16718" d="M198.646,246.764l-.037-.987,9.4.239v.913Z" transform="translate(-198.609 -245.777)"/>
          <rect id="Rectangle_4982" data-name="Rectangle 4982" width="0.379" height="0.972" transform="translate(2.639 0.067)" fill="#263238"/>
          <rect id="Rectangle_4983" data-name="Rectangle 4983" width="0.334" height="1.061" transform="translate(7.022 0.178)" fill="#263238"/>
          <rect id="Rectangle_4984" data-name="Rectangle 4984" width="0.32" height="1.137" transform="translate(0.258 0.015)" fill="#263238"/>
        </g>
      </g>
    </g>
  </g>
</svg>
