<svg data-name="info icons"
    xmlns="http://www.w3.org/2000/svg" width="12" height="12" viewBox="0 0 12 12">
    <g data-name="Group 21986">
        <path data-name="Path 16619" d="M6 0a6 6 0 1 1-6 6 6 6 0 0 1 6-6z" style="fill:#acacac"/>
        <path data-name="Path 22906" d="M3.3 4.945v-.2a1.823 1.823 0 0 1 .108-.663 1.523 1.523 0 0 1 .255-.424 4.877 4.877 0 0 1 .465-.454 2.223 2.223 0 0 0 .437-.477.765.765 0 0 0 .1-.387.91.91 0 0 0-.294-.669 1 1 0 0 0-.723-.288.968.968 0 0 0-.69.261 1.379 1.379 0 0 0-.363.816l-.665-.08a1.741 1.741 0 0 1 .534-1.137 1.7 1.7 0 0 1 1.174-.39 1.746 1.746 0 0 1 1.233.424 1.34 1.34 0 0 1 .46 1.023 1.3 1.3 0 0 1-.162.64 3.015 3.015 0 0 1-.632.713 3.305 3.305 0 0 0-.413.417.932.932 0 0 0-.144.308 2.559 2.559 0 0 0-.054.565H3.3zm-.035 1.308V5.51H4v.743z" transform="translate(2.5 2.591)" style="fill:#fff;stroke:#fff;stroke-width:.1px"/>
    </g>
</svg>