<svg xmlns="http://www.w3.org/2000/svg" width="12.484" height="16" viewBox="0 0 12.484 16">
  <g data-name="519388_bin_delete_recycle_remove_trash_icon (1)">
    <path data-name="Path 23856" d="M5.71 42.007a1.173 1.173 0 0 0 1.143 1.034h7.16a1.172 1.172 0 0 0 1.143-1.034l1.052-10.514H4.659zm2.352-.181a.447.447 0 0 1-.5-.343l-.837-8.373a.411.411 0 0 1 .429-.4.448.448 0 0 1 .5.343l.837 8.373a.411.411 0 0 1-.428.4zm2.838-.374a.479.479 0 0 1-.935 0v-8.37a.479.479 0 0 1 .935 0zm2.406.031a.447.447 0 0 1-.5.343.411.411 0 0 1-.429-.4l.837-8.373a.448.448 0 0 1 .5-.343.411.411 0 0 1 .429.4z" transform="translate(-4.191 -27.041)" style="fill:#c92828"/>
    <g data-name="Group 22220">
      <path data-name="Path 23857" d="M1.561 16.041v-.909A.737.737 0 0 1 2.3 14.4h11.01a.737.737 0 0 1 .737.737v.909z" transform="translate(-1.561 -12.525)" style="fill:#c92828"/>
      <path data-name="Path 23858" d="M30.411 4.516V3.4a.468.468 0 0 1 .468-.468h1.25a.468.468 0 0 1 .471.468v1.116h.935V3.4a1.4 1.4 0 0 0-1.4-1.4h-1.25a1.4 1.4 0 0 0-1.4 1.4v1.116z" transform="translate(-25.262 -2)" style="fill:#c92828"/>
    </g>
  </g>
</svg>
