<?xml version="1.0" standalone="no"?>
<!DOCTYPE svg PUBLIC "-//W3C//DTD SVG 20010904//EN"
 "http://www.w3.org/TR/2001/REC-SVG-20010904/DTD/svg10.dtd">
<svg version="1.0" xmlns="http://www.w3.org/2000/svg"
 width="300.000000pt" height="178.000000pt" viewBox="0 0 300.000000 178.000000"
 preserveAspectRatio="xMidYMid meet">
<metadata>
Created by potrace 1.10, written by Peter Selinger 2001-2011
</metadata>
<g transform="translate(0.000000,178.000000) scale(0.100000,-0.100000)"
fill="#000000" stroke="none">
<path d="M83 1755 c-18 -8 -42 -29 -53 -47 -19 -32 -20 -49 -20 -551 0 -443 2
-522 15 -547 17 -32 42 -49 95 -65 l34 -10 1 -137 c0 -122 2 -139 21 -164 41
-56 69 -69 150 -69 74 0 74 0 95 -35 53 -88 108 -120 204 -120 96 0 150 31
200 116 l20 35 654 1 c630 1 655 2 673 20 11 11 18 27 16 36 -3 16 -53 17
-664 20 l-660 2 -13 49 c-15 60 -67 122 -124 150 -52 25 -141 28 -195 5 -71
-29 -141 -120 -142 -181 0 -21 -5 -23 -60 -23 -93 0 -100 11 -100 165 l0 125
103 0 c108 0 127 7 127 45 0 41 -16 45 -187 45 -158 0 -163 1 -177 23 -21 34
-22 991 0 1024 l14 23 853 0 c650 0 856 -3 865 -12 9 -9 12 -137 12 -516 0
-328 4 -510 10 -523 12 -21 50 -25 68 -7 9 9 12 98 12 340 l0 329 33 -5 c17
-3 129 -15 247 -26 118 -12 223 -23 232 -26 21 -6 35 -53 74 -243 23 -111 31
-135 48 -142 12 -4 90 -17 174 -28 84 -11 160 -25 167 -31 12 -10 15 -55 15
-255 0 -285 4 -275 -102 -275 -63 0 -66 1 -72 27 -13 51 -64 110 -118 137
-137 68 -300 -3 -339 -147 -21 -78 31 -195 110 -247 38 -26 54 -30 113 -30
107 0 156 29 211 126 l32 57 70 1 c44 1 82 8 102 19 35 19 63 62 63 98 0 18
-2 19 -15 9 -13 -11 -15 14 -15 214 0 194 2 226 15 226 27 0 17 48 -17 86 -35
38 -81 53 -157 54 -53 0 -172 20 -187 32 -6 4 -24 73 -39 154 -30 155 -49 199
-99 222 -23 12 -367 55 -506 64 l-45 3 -5 156 c-6 174 -14 199 -75 225 -51 21
-1714 20 -1762 -1z m1832 -445 c-26 -28 -35 -25 -35 13 0 44 10 52 34 28 19
-20 19 -21 1 -41z m-1685 -745 c0 -8 -8 -19 -19 -24 -14 -8 -22 -6 -35 8 -23
26 -20 31 19 31 24 0 35 -5 35 -15z m456 -204 c53 -24 84 -74 84 -136 0 -86
-59 -145 -144 -145 -65 0 -113 30 -138 88 -34 75 -1 158 75 192 52 24 71 24
123 1z m1913 -10 c91 -65 92 -188 2 -248 -94 -63 -231 8 -231 120 0 118 137
195 229 128z m134 -95 c9 -7 17 -17 17 -22 0 -11 -40 -37 -41 -27 0 5 -3 20
-5 36 -5 30 2 33 29 13z m-2293 -36 c0 -43 -6 -47 -33 -27 -16 11 -16 14 5 40
12 15 23 27 25 27 2 0 3 -18 3 -40z m395 14 c13 -20 14 -28 4 -40 -20 -24 -30
-15 -27 26 1 22 3 40 4 40 1 0 9 -12 19 -26z"/>
<path d="M1098 1463 c-70 -70 -131 -136 -134 -147 -5 -14 0 -25 16 -38 12 -10
25 -18 29 -18 4 0 49 41 99 92 l92 92 0 -479 0 -480 -88 88 c-52 52 -96 87
-108 87 -24 0 -44 -18 -44 -40 0 -20 260 -280 281 -280 15 0 279 259 279 274
0 4 -5 16 -10 27 -20 37 -52 22 -142 -68 l-88 -88 0 478 0 478 88 -90 c48 -50
93 -91 100 -91 16 0 52 36 52 52 0 17 -263 278 -280 278 -7 0 -71 -57 -142
-127z m247 -20 c52 -53 93 -98 90 -101 -6 -6 -90 69 -90 81 0 13 -47 35 -63
30 -7 -3 -18 -16 -23 -29 -11 -29 -25 -31 -34 -4 -10 30 -37 41 -66 26 -13 -7
-48 -37 -76 -67 -29 -30 -53 -51 -53 -47 0 3 42 49 93 101 78 80 99 99 125
106 1 1 45 -42 97 -96z m-234 -919 c13 -14 37 -33 53 -41 29 -15 30 -15 58 18
15 19 28 28 28 22 0 -23 38 -53 57 -46 10 3 36 22 57 42 34 31 32 27 -13 -27
-51 -60 -100 -102 -118 -102 -5 0 -44 36 -87 80 -44 44 -75 80 -69 80 5 0 20
-12 34 -26z"/>
</g>
</svg>
